<?xml version="1.0" encoding="UTF-8"?>
<svg xmlns="http://www.w3.org/2000/svg" xmlns:xlink="http://www.w3.org/1999/xlink" width="300pt" height="300pt" viewBox="0 0 300 300" version="1.1">
<g id="surface16">
<rect x="0" y="0" width="300" height="300" style="fill:rgb(100%,100%,100%);fill-opacity:1;stroke:none;"/>
<path style="fill:none;stroke-width:0.75;stroke-linecap:round;stroke-linejoin:round;stroke:rgb(0%,0%,0%);stroke-opacity:1;stroke-miterlimit:10;" d="M 91.199219 196.472656 C 91.199219 199.785156 88.515625 202.472656 85.199219 202.472656 C 81.886719 202.472656 79.199219 199.785156 79.199219 196.472656 C 79.199219 193.160156 81.886719 190.472656 85.199219 190.472656 C 88.515625 190.472656 91.199219 193.160156 91.199219 196.472656 "/>
<path style="fill:none;stroke-width:0.75;stroke-linecap:round;stroke-linejoin:round;stroke:rgb(0%,0%,0%);stroke-opacity:1;stroke-miterlimit:10;" d="M 100.535156 196.472656 C 100.535156 199.785156 97.847656 202.472656 94.535156 202.472656 C 91.21875 202.472656 88.535156 199.785156 88.535156 196.472656 C 88.535156 193.160156 91.21875 190.472656 94.535156 190.472656 C 97.847656 190.472656 100.535156 193.160156 100.535156 196.472656 "/>
<path style="fill:none;stroke-width:0.75;stroke-linecap:round;stroke-linejoin:round;stroke:rgb(0%,0%,0%);stroke-opacity:1;stroke-miterlimit:10;" d="M 109.867188 196.472656 C 109.867188 199.785156 107.179688 202.472656 103.867188 202.472656 C 100.554688 202.472656 97.867188 199.785156 97.867188 196.472656 C 97.867188 193.15625 100.554688 190.472656 103.867188 190.472656 C 107.179688 190.472656 109.867188 193.15625 109.867188 196.472656 "/>
<path style="fill:none;stroke-width:0.75;stroke-linecap:round;stroke-linejoin:round;stroke:rgb(0%,0%,0%);stroke-opacity:1;stroke-miterlimit:10;" d="M 119.199219 196.46875 C 119.199219 199.78125 116.515625 202.46875 113.199219 202.46875 C 109.886719 202.46875 107.199219 199.78125 107.199219 196.46875 C 107.199219 193.152344 109.886719 190.46875 113.199219 190.46875 C 116.515625 190.46875 119.199219 193.152344 119.199219 196.46875 "/>
<path style="fill:none;stroke-width:0.75;stroke-linecap:round;stroke-linejoin:round;stroke:rgb(0%,0%,0%);stroke-opacity:1;stroke-miterlimit:10;" d="M 128.535156 196.457031 C 128.535156 199.769531 125.847656 202.457031 122.535156 202.457031 C 119.21875 202.457031 116.535156 199.769531 116.535156 196.457031 C 116.535156 193.140625 119.21875 190.457031 122.535156 190.457031 C 125.847656 190.457031 128.535156 193.140625 128.535156 196.457031 "/>
<path style="fill:none;stroke-width:0.75;stroke-linecap:round;stroke-linejoin:round;stroke:rgb(0%,0%,0%);stroke-opacity:1;stroke-miterlimit:10;" d="M 137.867188 196.421875 C 137.867188 199.734375 135.179688 202.421875 131.867188 202.421875 C 128.554688 202.421875 125.867188 199.734375 125.867188 196.421875 C 125.867188 193.109375 128.554688 190.421875 131.867188 190.421875 C 135.179688 190.421875 137.867188 193.109375 137.867188 196.421875 "/>
<path style="fill:none;stroke-width:0.75;stroke-linecap:round;stroke-linejoin:round;stroke:rgb(0%,0%,0%);stroke-opacity:1;stroke-miterlimit:10;" d="M 147.199219 196.332031 C 147.199219 199.644531 144.515625 202.332031 141.199219 202.332031 C 137.886719 202.332031 135.199219 199.644531 135.199219 196.332031 C 135.199219 193.019531 137.886719 190.332031 141.199219 190.332031 C 144.515625 190.332031 147.199219 193.019531 147.199219 196.332031 "/>
<path style="fill:none;stroke-width:0.75;stroke-linecap:round;stroke-linejoin:round;stroke:rgb(0%,0%,0%);stroke-opacity:1;stroke-miterlimit:10;" d="M 156.535156 196.128906 C 156.535156 199.441406 153.847656 202.128906 150.535156 202.128906 C 147.21875 202.128906 144.535156 199.441406 144.535156 196.128906 C 144.535156 192.8125 147.21875 190.128906 150.535156 190.128906 C 153.847656 190.128906 156.535156 192.8125 156.535156 196.128906 "/>
<path style="fill:none;stroke-width:0.75;stroke-linecap:round;stroke-linejoin:round;stroke:rgb(0%,0%,0%);stroke-opacity:1;stroke-miterlimit:10;" d="M 165.867188 195.6875 C 165.867188 199.003906 163.179688 201.6875 159.867188 201.6875 C 156.554688 201.6875 153.867188 199.003906 153.867188 195.6875 C 153.867188 192.375 156.554688 189.6875 159.867188 189.6875 C 163.179688 189.6875 165.867188 192.375 165.867188 195.6875 "/>
<path style="fill:none;stroke-width:0.75;stroke-linecap:round;stroke-linejoin:round;stroke:rgb(0%,0%,0%);stroke-opacity:1;stroke-miterlimit:10;" d="M 175.199219 194.828125 C 175.199219 198.144531 172.515625 200.828125 169.199219 200.828125 C 165.886719 200.828125 163.199219 198.144531 163.199219 194.828125 C 163.199219 191.515625 165.886719 188.828125 169.199219 188.828125 C 172.515625 188.828125 175.199219 191.515625 175.199219 194.828125 "/>
<path style="fill:none;stroke-width:0.75;stroke-linecap:round;stroke-linejoin:round;stroke:rgb(0%,0%,0%);stroke-opacity:1;stroke-miterlimit:10;" d="M 184.535156 193.242188 C 184.535156 196.554688 181.847656 199.242188 178.535156 199.242188 C 175.21875 199.242188 172.535156 196.554688 172.535156 193.242188 C 172.535156 189.929688 175.21875 187.242188 178.535156 187.242188 C 181.847656 187.242188 184.535156 189.929688 184.535156 193.242188 "/>
<path style="fill:none;stroke-width:0.75;stroke-linecap:round;stroke-linejoin:round;stroke:rgb(0%,0%,0%);stroke-opacity:1;stroke-miterlimit:10;" d="M 193.867188 190.476562 C 193.867188 193.789062 191.179688 196.476562 187.867188 196.476562 C 184.554688 196.476562 181.867188 193.789062 181.867188 190.476562 C 181.867188 187.164062 184.554688 184.476562 187.867188 184.476562 C 191.179688 184.476562 193.867188 187.164062 193.867188 190.476562 "/>
<path style="fill:none;stroke-width:0.75;stroke-linecap:round;stroke-linejoin:round;stroke:rgb(0%,0%,0%);stroke-opacity:1;stroke-miterlimit:10;" d="M 203.199219 185.828125 C 203.199219 189.140625 200.515625 191.828125 197.199219 191.828125 C 193.886719 191.828125 191.199219 189.140625 191.199219 185.828125 C 191.199219 182.511719 193.886719 179.828125 197.199219 179.828125 C 200.515625 179.828125 203.199219 182.511719 203.199219 185.828125 "/>
<path style="fill:none;stroke-width:0.75;stroke-linecap:round;stroke-linejoin:round;stroke:rgb(0%,0%,0%);stroke-opacity:1;stroke-miterlimit:10;" d="M 212.535156 178.542969 C 212.535156 181.855469 209.847656 184.542969 206.535156 184.542969 C 203.21875 184.542969 200.535156 181.855469 200.535156 178.542969 C 200.535156 175.226562 203.21875 172.542969 206.535156 172.542969 C 209.847656 172.542969 212.535156 175.226562 212.535156 178.542969 "/>
<path style="fill:none;stroke-width:0.75;stroke-linecap:round;stroke-linejoin:round;stroke:rgb(0%,0%,0%);stroke-opacity:1;stroke-miterlimit:10;" d="M 221.867188 167.148438 C 221.867188 170.460938 219.179688 173.148438 215.867188 173.148438 C 212.554688 173.148438 209.867188 170.460938 209.867188 167.148438 C 209.867188 163.835938 212.554688 161.148438 215.867188 161.148438 C 219.179688 161.148438 221.867188 163.835938 221.867188 167.148438 "/>
<path style="fill:none;stroke-width:0.75;stroke-linecap:round;stroke-linejoin:round;stroke:rgb(0%,0%,0%);stroke-opacity:1;stroke-miterlimit:10;" d="M 231.199219 150.335938 C 231.199219 153.652344 228.515625 156.335938 225.199219 156.335938 C 221.886719 156.335938 219.199219 153.652344 219.199219 150.335938 C 219.199219 147.023438 221.886719 144.335938 225.199219 144.335938 C 228.515625 144.335938 231.199219 147.023438 231.199219 150.335938 "/>
<path style="fill:none;stroke-width:0.75;stroke-linecap:round;stroke-linejoin:round;stroke:rgb(0%,0%,0%);stroke-opacity:1;stroke-miterlimit:10;" d="M 240.535156 126.242188 C 240.535156 129.558594 237.847656 132.242188 234.535156 132.242188 C 231.21875 132.242188 228.535156 129.558594 228.535156 126.242188 C 228.535156 122.929688 231.21875 120.242188 234.535156 120.242188 C 237.847656 120.242188 240.535156 122.929688 240.535156 126.242188 "/>
<path style="fill:none;stroke-width:0.75;stroke-linecap:round;stroke-linejoin:round;stroke:rgb(0%,0%,0%);stroke-opacity:1;stroke-miterlimit:10;" d="M 249.867188 92.25 C 249.867188 95.5625 247.179688 98.25 243.867188 98.25 C 240.554688 98.25 237.867188 95.5625 237.867188 92.25 C 237.867188 88.933594 240.554688 86.25 243.867188 86.25 C 247.179688 86.25 249.867188 88.933594 249.867188 92.25 "/>
<path style="fill:none;stroke-width:0.75;stroke-linecap:round;stroke-linejoin:round;stroke:rgb(0%,0%,0%);stroke-opacity:1;stroke-miterlimit:10;" d="M 259.199219 45.925781 C 259.199219 49.242188 256.515625 51.925781 253.199219 51.925781 C 249.886719 51.925781 247.199219 49.242188 247.199219 45.925781 C 247.199219 42.613281 249.886719 39.925781 253.199219 39.925781 C 256.515625 39.925781 259.199219 42.613281 259.199219 45.925781 "/>
</g>
</svg>
